:SAMPLES-PER-SECOND 30
:FRAME-RANGE 1-663
:FULLY-SPECIFIED
:DEGREES
415
root  28.6676 39.6864 -4.89784 -177.6 -37.7085 178.424
RightUpLeg  7.27981 -5.71815 -0.239431
RightLeg  2.86557 -3.9205 1.68399
RightFoot  -14.2184 0.0418784 5.50561
RightToes  2.91037e-010 0 -3.6325e-017
Spine  4.44964 1.7825 4.27314
Spine1  0.736902 2.8396 -4.9074
HEad  14.1523 -4.41077 -0.896135
LeftShoulder1  1.20808 0.43756 -33.3328
LeftArm  65.4655 27.481 -34.2096
LeftForeArm  -37.6638 -17.3786 -13.9136
LeftHand  0.375621 -1.50206 -6.21224
RightShoulder  3.341 3.12122 44.1183
RightArm  23.5633 -12.7395 8.52713
RightForeArm  13.2884 -0.909653 18.8569
RightHand  0.351647 2.4479 5.01349
LeftUpLeg  -19.516 -0.776364 -2.44466
LeftLeg  5.69143 -5.43757 -1.71315
LeftFoot  3.59186 1.15781 -8.98827
LeftToes  -4.9116e-011 5.71383e-011 -3.31847e-011
416
root  28.2487 39.5386 -5.54057 -178.095 -35.064 178.68
RightUpLeg  8.31921 -5.61048 -0.318032
RightLeg  3.79416 -1.27844 1.29671
RightFoot  -15.7233 0.112673 5.72896
RightToes  2.91037e-010 0 -3.6325e-017
Spine  4.12022 1.63158 3.9609
Spine1  0.969606 2.78989 -5.38792
HEad  14.5091 -3.74194 -0.387964
LeftShoulder1  1.18753 0.466203 -33.0294
LeftArm  42.829 31.2609 -33.9604
LeftForeArm  -13.3803 -12.7755 -15.8408
LeftHand  0.38948 -1.65637 -6.2893
RightShoulder  2.6313 1.87003 42.7975
RightArm  22.3281 -13.4148 7.65294
RightForeArm  14.4058 -1.32813 18.7588
RightHand  0.315194 2.47477 4.4564
LeftUpLeg  -19.0637 -1.79074 -2.22215
LeftLeg  5.81719 -8.95227 -1.47482
LeftFoot  3.51593 1.08587 -8.48189
LeftToes  -4.9116e-011 5.71383e-011 -3.31847e-011
417
root  27.7814 39.3624 -6.23519 -178.834 -32.4787 179.041
RightUpLeg  9.51495 -5.53311 -0.429014
RightLeg  5.11605 2.33908 1.03885
RightFoot  -17.5334 0.199451 5.88192
RightToes  2.91037e-010 0 -3.6325e-017
Spine  3.75916 1.61185 3.71302
Spine1  1.30065 2.84701 -5.5848
HEad  14.9143 -3.25923 -0.0466954
LeftShoulder1  1.1921 0.464177 -33.153
LeftArm  33.4593 33.3255 -33.2881
LeftForeArm  -5.64124 -12.5549 -15.1524
LeftHand  0.388927 -0.223271 -8.06985
RightShoulder  2.16622 1.0532 41.4955
RightArm  17.2864 -13.9525 7.08046
RightForeArm  17.2656 -2.78999 18.3668
RightHand  0.28219 2.47769 3.96771
LeftUpLeg  -18.7932 -1.88811 -1.97965
LeftLeg  8.55425 -9.32198 -1.51959
LeftFoot  6.67929 0.814601 -5.39201
LeftToes  -4.9116e-011 5.71383e-011 -3.31847e-011
418
root  27.3353 39.2862 -6.93445 -179.192 -29.7792 178.609
RightUpLeg  11.1041 -5.06795 -1.00933
RightLeg  5.41968 4.28827 0.19446
RightFoot  -18.5622 0.274314 6.3378
RightToes  2.91037e-010 0 -3.6325e-017
Spine  4.03415 1.68139 2.19285
Spine1  0.754325 2.92145 -5.71316
HEad  15.8736 -2.97066 0.293076
LeftShoulder1  1.19001 0.49989 -33.5459
LeftArm  34.235 32.6931 -31.9985
LeftForeArm  -6.10938 -12.4496 -15.2805
LeftHand  0.4804 -0.825243 -8.92613
RightShoulder  1.79713 0.333629 40.875
RightArm  14.0334 -14.1191 6.46739
RightForeArm  16.8724 -3.74586 18.1254
RightHand  0.288503 2.09465 4.30313
LeftUpLeg  -18.3871 -0.616443 -2.3126
LeftLeg  11.9007 -7.43754 -1.68405
LeftFoot  4.95599 0.388018 -2.92039
LeftToes  -4.9116e-011 5.71383e-011 -3.31847e-011
419
root  26.9542 39.278 -7.62579 -179.502 -26.9098 177.901
RightUpLeg  11.7411 -4.52424 -1.75127
RightLeg  7.40621 6.12911 -0.425787
RightFoot  -19.0514 0.266815 5.87292
RightToes  2.91037e-010 0 -3.6325e-017
Spine  4.41318 1.67277 -0.0150605
Spine1  0.418903 2.87266 -5.8823
HEad  16.6077 -2.51624 1.21273
LeftShoulder1  1.08116 0.771879 -33.5013
LeftArm  32.2837 30.7542 -30.7488
LeftForeArm  2.82995 -11.6739 -15.3052
LeftHand  0.0705917 -5.97938 -0.38927
RightShoulder  1.81551 0.321092 41.4745
RightArm  11.1896 -14.1264 6.24744
RightForeArm  15.6716 -4.64424 17.8592
RightHand  0.265166 2.15601 3.90357
LeftUpLeg  -17.3387 2.07817 -2.67252
LeftLeg  14.2752 -7.45824 -2.12619
LeftFoot  2.43472 0.330559 -2.85892
LeftToes  -4.9116e-011 5.71383e-011 -3.31847e-011
420
root  26.6489 39.3791 -8.2657 -179.749 -23.7951 177.677
RightUpLeg  10.4163 -1.9261 -1.82692
RightLeg  11.9697 4.49092 -0.155812
RightFoot  -18.3344 0.306729 7.0488
RightToes  2.91037e-010 0 -3.6325e-017
Spine  4.72544 1.74515 -1.51897
Spine1  0.0355319 2.95092 -6.49895
HEad  17.4373 -2.22531 2.4375
LeftShoulder1  1.04598 0.874221 -33.6999
LeftArm  29.5091 27.3292 -29.0835
LeftForeArm  8.6993 -10.3052 -15.7976
LeftHand  -0.580519 -8.86901 5.10391
RightShoulder  1.82712 0.294259 42.0786
RightArm  7.91896 -14.1842 7.43409
RightForeArm  14.7784 -5.75076 17.3641
RightHand  0.26927 2.2667 3.89965
LeftUpLeg  -15.7231 6.10157 -2.39717
LeftLeg  14.7507 -8.21672 -2.81066
LeftFoot  0.30899 0.358668 -3.53444
LeftToes  -4.9116e-011 5.71383e-011 -3.31847e-011
421
root  26.3715 39.4693 -8.81432 -179.82 -20.2927 177.607
RightUpLeg  6.87195 -1.08537 -2.8326
RightLeg  19.7355 3.07185 1.0139
RightFoot  -16.9237 0.396049 10.4581
RightToes  2.91037e-010 0 -3.6325e-017
Spine  5.14049 1.66603 -3.22754
Spine1  -0.605813 2.6753 -6.8186
HEad  18.0362 -0.595814 2.78996
LeftShoulder1  1.02017 0.948935 -33.8499
LeftArm  24.7233 24.1523 -27.6264
LeftForeArm  11.2835 -9.09541 -16.1381
LeftHand  -0.626948 -9.64478 5.22828
RightShoulder  2.04913 0.720005 42.4299
RightArm  8.88535 -13.8726 9.56008
RightForeArm  12.3466 -2.24779 17.399
RightHand  0.337799 2.81418 4.56381
LeftUpLeg  -14.2683 8.61934 -1.46192
LeftLeg  14.8917 -7.20253 -3.55052
LeftFoot  -1.77087 0.412456 -4.79936
LeftToes  -4.9116e-011 5.71383e-011 -3.31847e-011
422
root  26.0941 39.5588 -9.3144 -179.915 -16.9756 177.753
RightUpLeg  2.0806 -3.60339 -3.92921
RightLeg  28.8672 2.2545 1.11866
RightFoot  -13.1802 0.161199 15.5624
RightToes  2.91037e-010 0 -3.6325e-017
Spine  5.19413 1.33459 -4.28929
Spine1  -0.743594 2.2469 -7.22051
HEad  17.8565 1.27434 2.79907
LeftShoulder1  1.10958 0.673512 -33.1348
LeftArm  20.9257 20.6205 -27.1533
LeftForeArm  8.68007 -7.91024 -16.6414
LeftHand  -0.191648 -7.08287 2.13848
RightShoulder  2.3312 1.23405 43.0444
RightArm  12.2368 -13.206 12.1838
RightForeArm  10.3959 2.08296 16.9636
RightHand  0.451244 3.45776 5.66856
LeftUpLeg  -12.5922 9.23219 -0.275983
LeftLeg  14.3358 -4.49377 -3.93345
LeftFoot  -3.43111 0.423359 -5.82327
LeftToes  -4.9116e-011 5.71383e-011 -3.31847e-011
423
root  25.8369 39.5768 -9.76861 179.99 -13.7555 177.566
RightUpLeg  -3.42174 -5.3294 -4.89102
RightLeg  38.3122 0.746507 0.370395
RightFoot  -8.52377 -0.54792 19.7212
RightToes  2.91037e-010 0 -3.6325e-017
Spine  5.5104 0.984821 -6.53449
Spine1  -0.865169 1.44762 -6.1175
HEad  17.1334 3.20749 2.06789
LeftShoulder1  1.23377 0.32605 -32.7639
LeftArm  17.6068 16.8136 -26.8686
LeftForeArm  2.62303 -6.48673 -17.3745
LeftHand  0.0872844 -1.82732 -1.24953
RightShoulder  2.84721 2.23588 43.38
RightArm  17.325 -12.697 14.5137
RightForeArm  8.64529 6.64136 15.7806
RightHand  0.519554 4.19854 6.00325
LeftUpLeg  -11.2118 8.95442 0.350136
LeftLeg  14.3589 -1.08659 -3.97729
LeftFoot  -5.12895 0.383143 -6.49004
LeftToes  -4.9116e-011 5.71383e-011 -3.31847e-011
424
root  25.6046 39.552 -10.2122 179.761 -10.706 177.35
RightUpLeg  -8.71182 -6.63634 -5.29249
RightLeg  46.2462 -1.87818 -2.41181
RightFoot  -4.69987 -1.14282 18.9778
RightToes  2.91037e-010 0 -3.6325e-017
Spine  5.82379 0.71066 -8.63129
Spine1  -0.769858 0.750654 -4.94373
HEad  16.1089 4.45976 1.46016
LeftShoulder1  1.35654 -0.0641986 -31.9656
LeftArm  13.4985 12.2856 -26.7272
LeftForeArm  -0.594475 -4.58018 -18.0131
LeftHand  0.0617904 2.10327 -2.64584
RightShoulder  3.34373 3.08424 44.4165
RightArm  23.6175 -12.3896 16.1656
RightForeArm  5.86567 11.3095 13.7067
RightHand  0.477414 4.35704 5.39472
LeftUpLeg  -9.85833 9.40228 0.795141
LeftLeg  14.6814 1.34843 -4.11066
LeftFoot  -6.87469 0.325008 -7.27196
LeftToes  -4.9116e-011 5.71383e-011 -3.31847e-011
425
root  25.3219 39.6069 -10.6952 179.291 -7.82018 177.48
RightUpLeg  -12.9235 -7.67624 -5.09962
RightLeg  51.2033 -3.14974 -4.55116
RightFoot  -5.33788 -0.963358 17.5454
RightToes  2.91037e-010 0 -3.6325e-017
Spine  6.0795 0.391859 -9.54521
Spine1  -0.587793 0.174579 -3.97478
HEad  15.2555 5.16891 0.97206
LeftShoulder1  1.42574 -0.291039 -31.5186
LeftArm  10.434 6.73951 -26.031
LeftForeArm  -0.562309 -2.31852 -18.5421
LeftHand  0.053736 2.37386 -2.6328
RightShoulder  3.82639 3.84134 45.6232
RightArm  29.3802 -12.0619 17.247
RightForeArm  2.10986 14.5529 11.786
RightHand  0.403625 4.30716 4.54515
LeftUpLeg  -7.76793 10.0509 1.33958
LeftLeg  13.9933 3.41506 -4.16089
LeftFoot  -7.96455 0.274102 -7.6739
LeftToes  -4.9116e-011 5.71383e-011 -3.31847e-011
426
root  25.0554 39.6333 -11.1821 179.077 -5.0659 177.771
RightUpLeg  -16.8642 -8.40357 -4.40509
RightLeg  53.0705 -3.44141 -5.28074
RightFoot  -6.08507 -0.807797 16.5824
RightToes  2.91037e-010 0 -3.6325e-017
Spine  6.19466 0.08346 -9.82841
Spine1  -0.670667 -0.227084 -3.508
HEad  14.7767 5.28663 0.933285
LeftShoulder1  1.46072 -0.409441 -31.276
LeftArm  8.5072 0.734458 -24.9307
LeftForeArm  0.01463 -0.261745 -18.9082
LeftHand  0.0824428 1.8058 -3.04741
RightShoulder  4.14399 4.24433 46.8685
RightArm  32.734 -11.6884 18.0245
RightForeArm  -0.163829 16.0346 10.7787
RightHand  0.349425 4.07797 4.00816
LeftUpLeg  -6.24763 10.7286 1.74008
LeftLeg  13.751 5.22296 -3.82542
LeftFoot  -9.11492 0.212806 -8.13522
LeftToes  -4.9116e-011 5.71383e-011 -3.31847e-011
427
root  24.816 39.6709 -11.6937 178.9 -2.57437 178.234
RightUpLeg  -19.8408 -8.8 -3.21765
RightLeg  51.681 -3.88941 -5.62251
RightFoot  -6.71247 -0.726503 16.7272
RightToes  2.91037e-010 0 -3.6325e-017
Spine  6.34186 -0.258988 -9.81553
Spine1  -0.945009 -0.611474 -3.00155
HEad  14.5785 5.02425 1.33384
LeftShoulder1  1.48177 -0.482882 -31.1166
LeftArm  6.87223 -4.87696 -23.9547
LeftForeArm  -0.5315 0.626348 -19.0259
LeftHand  0.0807373 1.96823 -3.16858
RightShoulder  4.42093 4.59728 47.8339
RightArm  34.4816 -11.3391 18.6427
RightForeArm  -0.60657 16.1398 10.7988
RightHand  0.36015 4.22696 4.06503
LeftUpLeg  -4.7003 11.3823 2.35758
LeftLeg  13.4703 6.46873 -3.65713
LeftFoot  -10.1759 0.147929 -8.54854
LeftToes  -4.9116e-011 5.71383e-011 -3.31847e-011
428
root  24.5443 39.7087 -12.2476 178.517 -0.208277 178.605
RightUpLeg  -21.5441 -9.04302 -2.16553
RightLeg  47.5008 -3.93863 -4.90991
RightFoot  -6.6896 -0.728511 16.6982
RightToes  2.91037e-010 0 -3.6325e-017
Spine  6.57322 -0.642975 -9.71204
Spine1  -1.09929 -1.03016 -2.40489
HEad  14.6023 4.76107 1.93745
LeftShoulder1  1.48336 -0.546288 -30.5701
LeftArm  4.65534 -9.57841 -23.7099
LeftForeArm  -0.735587 0.732193 -18.9111
LeftHand  0.0314282 2.93786 -2.32567
RightShoulder  4.79645 5.164 48.5038
RightArm  34.7142 -11.2013 19.0777
RightForeArm  0.918165 15.4274 11.3702
RightHand  0.33403 4.18948 3.76764
LeftUpLeg  -2.73234 11.6708 2.62404
LeftLeg  12.7977 8.19773 -3.22571
LeftFoot  -11.081 0.0870048 -9.11525
LeftToes  -4.9116e-011 5.71383e-011 -3.31847e-011
